HIERARCHY
ROOT Hips
{
	OFFSET 0.000000 89.005402 0.000000
	CHANNELS 6 Xposition Yposition Zposition Xrotation Yrotation Zrotation
	JOINT Spine
	{
		OFFSET 0.116900 10.681000 0.373400
		CHANNELS 3 Xrotation Yrotation Zrotation
		JOINT Spine1
		{
			OFFSET 0.000000 13.840401 0.053500
			CHANNELS 3 Xrotation Yrotation Zrotation
			JOINT Spine2
			{
				OFFSET 0.000000 14.712700 -0.366200
				CHANNELS 3 Xrotation Yrotation Zrotation
				JOINT Neck
				{
					OFFSET 0.000000 35.415497 -3.314200
					CHANNELS 3 Xrotation Yrotation Zrotation
					JOINT Head
					{
						OFFSET 0.000000 16.899200 1.218300
						CHANNELS 3 Xrotation Yrotation Zrotation
						JOINT HeadTop_End
						{
							OFFSET 0.000000 22.206207 2.192500
							CHANNELS 3 Xrotation Yrotation Zrotation
							End Site
							{
								OFFSET 0.000000 22.314178 0.000000
							}
						}
					}
				}
				JOINT LeftShoulder
				{
					OFFSET 12.896400 26.716293 -4.548400
					CHANNELS 3 Xrotation Yrotation Zrotation
					JOINT LeftArm
					{
						OFFSET 19.027000 -4.857010 -1.718400
						CHANNELS 3 Xrotation Yrotation Zrotation
						JOINT LeftForeArm
						{
							OFFSET 24.179897 0.000000 0.000000
							CHANNELS 3 Xrotation Yrotation Zrotation
							JOINT LeftHand
							{
								OFFSET 27.156403 0.000000 0.000000
								CHANNELS 3 Xrotation Yrotation Zrotation
								JOINT LeftHandIndex1
								{
									OFFSET 16.441200 0.000000 0.000000
									CHANNELS 3 Xrotation Yrotation Zrotation
									JOINT LeftHandIndex2
									{
										OFFSET 4.821899 0.000000 0.000000
										CHANNELS 3 Xrotation Yrotation Zrotation
										JOINT LeftHandIndex3
										{
											OFFSET 6.386497 0.000000 0.000000
											CHANNELS 3 Xrotation Yrotation Zrotation
											JOINT LeftHandIndex4
											{
												OFFSET 5.188988 0.000000 0.000000
												CHANNELS 3 Xrotation Yrotation Zrotation
												End Site
												{
													OFFSET -0.178703 5.185913 0.000177
												}
											}
										}
									}
								}
								JOINT LeftHandThumb1
								{
									OFFSET 6.534897 -5.032593 5.900300
									CHANNELS 3 Xrotation Yrotation Zrotation
									JOINT LeftHandThumb2
									{
										OFFSET 3.818176 -2.204422 2.204423
										CHANNELS 3 Xrotation Yrotation Zrotation
										JOINT LeftHandThumb3
										{
											OFFSET 3.252098 -1.877594 1.877601
											CHANNELS 3 Xrotation Yrotation Zrotation
											JOINT LeftHandThumb4
											{
												OFFSET 5.251778 -3.032120 3.032117
												CHANNELS 3 Xrotation Yrotation Zrotation
												End Site
												{
													OFFSET 0.000023 6.780014 0.000000
												}
											}
										}
									}
								}
							}
						}
					}
				}
				JOINT RightShoulder
				{
					OFFSET -12.896300 26.716293 -4.548400
					CHANNELS 3 Xrotation Yrotation Zrotation
					JOINT RightArm
					{
						OFFSET -19.027000 -4.857010 -1.718400
						CHANNELS 3 Xrotation Yrotation Zrotation
						JOINT RightForeArm
						{
							OFFSET -24.179897 0.000000 0.000000
							CHANNELS 3 Xrotation Yrotation Zrotation
							JOINT RightHand
							{
								OFFSET -27.156403 0.000000 0.000000
								CHANNELS 3 Xrotation Yrotation Zrotation
								JOINT RightHandThumb1
								{
									OFFSET -6.591202 -4.852203 5.988100
									CHANNELS 3 Xrotation Yrotation Zrotation
									JOINT RightHandThumb2
									{
										OFFSET -3.818176 -2.204422 2.204423
										CHANNELS 3 Xrotation Yrotation Zrotation
										JOINT RightHandThumb3
										{
											OFFSET -3.252098 -1.877594 1.877601
											CHANNELS 3 Xrotation Yrotation Zrotation
											JOINT RightHandThumb4
											{
												OFFSET -5.251778 -3.032120 3.032117
												CHANNELS 3 Xrotation Yrotation Zrotation
												End Site
												{
													OFFSET -0.000023 6.780014 0.000000
												}
											}
										}
									}
								}
								JOINT RightHandIndex1
								{
									OFFSET -16.029404 0.000000 0.000000
									CHANNELS 3 Xrotation Yrotation Zrotation
									JOINT RightHandIndex2
									{
										OFFSET -5.213303 0.000000 0.000000
										CHANNELS 3 Xrotation Yrotation Zrotation
										JOINT RightHandIndex3
										{
											OFFSET -6.386528 0.000000 0.000000
											CHANNELS 3 Xrotation Yrotation Zrotation
											JOINT RightHandIndex4
											{
												OFFSET -5.189026 0.000000 0.000000
												CHANNELS 3 Xrotation Yrotation Zrotation
												End Site
												{
													OFFSET 0.236702 5.183624 0.001972
												}
											}
										}
									}
								}
							}
						}
					}
				}
			}
		}
	}
	JOINT LeftUpLeg
	{
		OFFSET 14.073000 -7.904099 -1.463000
		CHANNELS 3 Xrotation Yrotation Zrotation
		JOINT LeftLeg
		{
			OFFSET -0.109806 -34.073280 4.093200
			CHANNELS 3 Xrotation Yrotation Zrotation
			JOINT LeftFoot
			{
				OFFSET 0.109806 -29.899420 -6.319000
				CHANNELS 3 Xrotation Yrotation Zrotation
				JOINT LeftToeBase
				{
					OFFSET 1.551100 -14.988700 20.535801
					CHANNELS 3 Xrotation Yrotation Zrotation
					JOINT LeftToe_End
					{
						OFFSET 0.221200 0.570800 13.248301
						CHANNELS 3 Xrotation Yrotation Zrotation
						End Site
						{
							OFFSET 0.000000 13.262435 0.000000
						}
					}
				}
			}
		}
	}
	JOINT RightUpLeg
	{
		OFFSET -13.839300 -7.904099 -1.463000
		CHANNELS 3 Xrotation Yrotation Zrotation
		JOINT RightLeg
		{
			OFFSET 0.109694 -34.073219 4.093300
			CHANNELS 3 Xrotation Yrotation Zrotation
			JOINT RightFoot
			{
				OFFSET -0.109694 -29.899384 -6.319200
				CHANNELS 3 Xrotation Yrotation Zrotation
				JOINT RightToeBase
				{
					OFFSET -1.551100 -14.988700 20.535801
					CHANNELS 3 Xrotation Yrotation Zrotation
					JOINT RightToe_End
					{
						OFFSET -0.221200 0.570900 13.248299
						CHANNELS 3 Xrotation Yrotation Zrotation
						End Site
						{
							OFFSET 0.000000 13.262440 0.000000
						}
					}
				}
			}
		}
	}
}
MOTION
Frames: 8
Frame Time: 0.033333
-1.623741 75.643097 0.472133 3.014618 -58.248680 6.508909 11.191658 0.114445 -2.727511 8.434975 0.027701 -5.592360 8.457439 0.027832 -5.591901 -21.557143 25.063164 12.062945 -0.294042 25.463000 -3.209559 0.000001 -0.000000 0.000000 -6.228006 -11.578343 -4.017286 -23.001345 9.645028 -36.648121 0.015613 -43.221700 0.043400 22.741769 -5.686519 15.949567 13.340880 -1.006662 10.682135 -0.168846 0.307413 -31.105313 -0.141696 0.303944 -32.256747 -0.000002 0.000000 0.000000 -1.064292 -7.954996 8.489998 2.373399 19.986132 -2.038294 0.808242 1.237963 2.631818 -0.000001 -0.000000 -0.000002 -5.489224 10.658082 2.466514 -41.473643 -26.755559 30.079306 24.954957 111.863301 -23.307988 -8.702710 12.431366 -9.800752 0.264964 10.061243 -10.888473 1.383753 -17.413067 3.016051 3.342446 -13.253830 -8.262914 -0.000002 -0.000001 0.000001 19.443559 11.174465 -13.340375 -0.112816 -0.322531 18.050172 -0.084271 -0.286024 23.258001 -0.000000 -0.000000 0.000001 -33.859847 9.516496 26.665251 43.308109 -9.048813 -10.183685 -11.327321 -2.056585 -9.965510 -0.327598 1.238566 0.837222 -0.000000 0.000001 0.000000 -30.234679 -7.938420 -28.827694 49.491588 4.579007 -7.135176 -22.981751 0.973928 23.046614 -0.321727 -0.992310 -0.837132 -0.000000 -0.000001 0.000000 
-1.583603 75.674911 0.405441 2.981247 -58.768320 6.560080 11.215056 0.108621 -2.637475 8.480769 0.017914 -5.416667 8.503220 0.018071 -5.416202 -21.767591 25.062242 12.129379 0.425660 25.431362 -3.665014 0.000000 -0.000001 0.000000 -6.166305 -11.571522 -3.618951 -22.644737 10.660088 -36.424634 1.734047 -44.345847 1.377455 22.294368 -6.838416 14.854946 13.052789 -0.264098 11.671919 -0.167982 0.306016 -30.912617 -0.141411 0.302978 -32.093327 0.000002 -0.000000 -0.000000 -1.064288 -7.954975 8.489985 2.373410 19.986050 -2.038303 0.808233 1.237971 2.631842 0.000001 -0.000000 -0.000001 -5.427396 10.318960 1.763938 -40.207859 -26.223598 30.568477 24.257098 111.470716 -22.763439 -8.627933 12.396126 -9.573766 0.202718 10.026718 -10.934674 1.383897 -17.413087 3.016173 3.342428 -13.253793 -8.262907 -0.000000 0.000004 -0.000001 19.410730 11.060765 -13.118212 -0.112873 -0.322443 18.050346 -0.084222 -0.285973 23.241585 0.000000 -0.000002 -0.000001 -33.664387 9.987510 27.019448 43.106850 -9.166333 -10.438580 -11.301689 -2.028116 -9.963725 -0.327609 1.238333 0.837243 0.000000 0.000001 0.000000 -30.455578 -7.615261 -28.697894 49.530462 4.792334 -7.119498 -22.794757 1.064792 22.855710 -0.321730 -0.992324 -0.843551 -0.000000 -0.000001 -0.000000 
-1.515136 75.859863 0.306757 3.168884 -59.900308 6.847111 11.240840 0.081377 -2.486699 8.529136 -0.034621 -5.121281 8.551626 -0.034526 -5.120815 -21.944150 25.226214 12.071971 1.592755 25.489071 -4.653735 -0.000000 -0.000000 0.000000 -6.081660 -11.601024 -3.149413 -21.791973 12.839476 -35.127601 4.964484 -46.484294 3.746782 21.411863 -8.580213 13.451182 12.567086 0.629787 13.179773 -0.166004 0.302735 -30.469023 -0.140529 0.299791 -31.569595 0.000001 0.000000 -0.000000 -1.064305 -7.954968 8.490028 2.373432 19.986001 -2.038321 0.808216 1.237962 2.631801 -0.000000 0.000001 -0.000001 -5.377483 9.731005 0.851756 -37.907393 -24.889865 30.529631 22.028777 110.641517 -20.577886 -8.644059 12.282003 -8.978616 0.088059 9.632700 -11.100854 1.383834 -17.413021 3.016129 3.342409 -13.253834 -8.262952 -0.000003 -0.000001 -0.000000 19.326620 10.455868 -12.604834 -0.112286 -0.320064 17.948993 -0.083772 -0.283782 23.042862 0.000001 -0.000000 0.000001 -33.097659 10.836112 27.451346 42.469918 -8.950648 -10.669412 -11.209140 -1.924456 -10.143485 -0.327599 1.238440 0.837226 0.000000 -0.000000 0.000000 -30.883049 -7.053029 -28.405234 49.175443 5.329343 -6.987095 -22.160417 1.298043 22.423045 -0.321519 -0.992290 -0.853420 0.000000 -0.000001 -0.000000 
-1.460360 76.225128 0.242105 4.016091 -61.811218 7.845236 11.232915 0.008754 -2.376403 8.506517 -0.185531 -4.907600 8.529001 -0.185418 -4.907123 -21.643075 25.974549 11.439395 2.333745 25.878354 -5.908732 -0.000000 -0.000000 0.000000 -6.076177 -11.707000 -3.455087 -20.240258 16.445856 -30.995282 6.331485 -49.157186 4.107525 20.834444 -9.372314 14.011430 12.439525 0.408959 13.436707 -0.162573 0.300017 -29.717388 -0.139058 0.295014 -30.757698 -0.000001 -0.000000 0.000001 -1.064263 -7.954992 8.490004 2.373377 19.986127 -2.038292 0.808253 1.237930 2.631830 0.000000 -0.000000 0.000001 -5.441898 9.131621 0.832115 -35.446360 -22.191928 28.154065 16.315601 109.985218 -14.293187 -9.066688 11.729593 -7.909744 0.214672 8.131187 -11.242745 1.383817 -17.413065 3.016149 3.342441 -13.253817 -8.262927 -0.000001 -0.000000 0.000002 19.202370 9.139684 -11.977659 -0.110072 -0.315518 17.580936 -0.082385 -0.278192 22.513893 0.000001 0.000001 -0.000000 -32.115160 12.238185 27.886703 41.266388 -8.291638 -10.950012 -11.093179 -1.743365 -10.460695 -0.327596 1.238385 0.837253 -0.000000 0.000001 0.000000 -31.653480 -6.130848 -27.948601 48.289427 6.260209 -6.767677 -20.996321 1.668065 21.794189 -0.289527 -0.992844 -0.798296 -0.000000 -0.000001 0.000000 
-1.408254 76.746010 0.216232 5.320099 -64.505133 9.250711 11.210645 -0.146790 -2.289511 8.450564 -0.508524 -4.734291 8.473053 -0.508430 -4.733824 -20.905254 27.036722 10.848165 3.170023 26.696421 -7.769104 0.000000 -0.000001 0.000001 -5.980747 -11.712624 -3.270072 -18.461341 22.389615 -26.559682 2.766338 -52.073915 0.587830 20.009567 -9.733242 14.376256 12.814599 -0.295562 11.207613 -0.158731 0.299127 -28.895276 -0.136859 0.288011 -29.570662 -0.000000 0.000001 -0.000000 -1.064279 -7.954969 8.489993 2.373375 19.986150 -2.038262 0.808232 1.237971 2.631842 0.000000 -0.000001 -0.000001 -5.496379 8.652968 0.788938 -32.701317 -18.954950 24.646256 11.969942 109.754303 -9.691614 -9.541501 10.807685 -6.662710 0.852718 6.003942 -10.651195 1.383813 -17.413053 3.016126 3.342403 -13.253807 -8.262948 -0.000003 -0.000001 -0.000001 18.991338 8.667216 -10.727594 -0.110496 -0.312569 17.641412 -0.082165 -0.273794 22.401135 -0.000000 -0.000003 -0.000000 -30.658988 14.103486 28.301430 39.720863 -7.100260 -11.031009 -11.050037 -1.512291 -10.987701 -0.327571 1.238560 0.837233 -0.000000 0.000001 0.000000 -32.519576 -4.997610 -27.208962 46.790846 7.679235 -6.323748 -19.288150 2.192005 20.819345 -0.258581 -0.993518 -0.746303 -0.000000 -0.000001 0.000000 
-1.349880 77.358566 0.246703 7.436903 -67.486449 11.326288 11.144339 -0.375067 -2.216298 8.303394 -0.977868 -4.581441 8.325870 -0.977784 -4.580976 -19.508718 27.939041 10.777934 4.422276 27.833912 -10.555056 -0.000000 -0.000000 0.000000 -5.731539 -12.045608 -2.005046 -16.468650 30.754511 -22.577503 5.092496 -55.213374 0.856092 17.298718 -9.432005 14.309623 13.235691 -2.413316 8.978265 -0.152877 0.294144 -27.672669 -0.134140 0.280132 -28.214811 -0.000003 -0.000000 -0.000001 -1.064302 -7.954955 8.490009 2.373409 19.986064 -2.038300 0.808242 1.237989 2.631808 -0.000000 -0.000002 0.000001 -5.561820 8.398256 0.821241 -29.864558 -15.968774 19.630742 8.721087 109.542171 -6.459426 -10.009947 10.374855 -4.782764 1.203375 4.309647 -10.278514 1.383822 -17.413081 3.016124 3.342389 -13.253816 -8.262931 -0.000003 -0.000001 0.000000 18.804749 8.195234 -7.710604 -0.108468 -0.315464 18.919856 -0.075653 -0.274301 23.465644 -0.000000 0.000002 -0.000001 -29.140500 16.077063 28.476452 38.068394 -5.470434 -10.679332 -11.027467 -1.257351 -11.799414 -0.327586 1.238407 0.837236 0.000000 0.000003 0.000000 -33.418931 -3.927022 -26.406700 44.686963 9.351661 -5.486986 -17.130094 2.781131 19.694681 -0.240965 -0.993500 -0.721145 -0.000000 -0.000001 0.000000 
-1.293504 77.983032 0.324099 10.497768 -70.074695 14.189283 11.072577 -0.672676 -2.068014 8.144066 -1.576160 -4.268381 8.166534 -1.576010 -4.267923 -17.958109 28.742245 10.730004 5.773638 28.928334 -13.293236 0.000000 0.000000 0.000000 -5.461166 -12.303711 -0.656042 -14.503562 39.990990 -18.801586 14.105024 -58.695893 6.479093 13.250184 -8.680456 13.754924 13.415928 -3.709480 7.064320 -0.140083 0.285543 -26.340163 -0.126975 0.277426 -27.769090 0.000002 -0.000001 -0.000002 -1.064305 -7.954938 8.490009 2.373402 19.986028 -2.038297 0.808243 1.237984 2.631853 -0.000000 -0.000001 -0.000000 -5.315878 7.928799 -2.108088 -29.322870 -15.962056 16.121408 -0.986064 111.680157 4.536720 -10.247538 9.624737 -2.372725 1.668475 1.949060 -9.968713 1.383848 -17.413060 3.016132 3.342427 -13.253831 -8.262929 -0.000001 -0.000000 0.000000 18.481833 8.917871 -3.711768 -0.098175 -0.319502 20.995629 -0.058315 -0.275272 25.317264 0.000000 0.000001 0.000001 -27.957382 17.704349 28.202109 36.513215 -3.678387 -9.711528 -10.940679 -0.967379 -12.891232 -0.327619 1.238446 0.837233 -0.000000 0.000002 0.000000 -34.262025 -3.246799 -25.882840 42.173136 11.030102 -4.168318 -14.804379 3.327584 18.620655 -0.105129 -0.994307 -0.476962 -0.000000 0.000001 -0.000000 
-1.243561 78.572792 0.429732 13.473811 -71.480464 16.603649 11.053426 -1.033678 -1.782699 8.093622 -2.281243 -3.658467 8.116113 -2.281178 -3.657984 -16.426275 29.270110 10.511911 6.596748 29.820442 -15.898908 -0.000001 -0.000001 0.000001 -5.230955 -11.512793 0.269993 -12.323344 48.583078 -17.987916 21.755481 -64.051485 15.652319 11.100540 -9.441489 10.204234 13.848133 -1.900899 1.930191 -0.102686 0.277835 -25.277516 -0.100378 0.290009 -29.997265 -0.000001 0.000000 0.000000 -1.064289 -7.954982 8.489994 2.373382 19.986114 -2.038284 0.808223 1.238011 2.631843 0.000002 -0.000000 0.000000 -5.189583 7.387768 -4.005907 -32.823891 -16.967383 10.063934 -7.484148 115.527732 13.101992 -10.444569 8.258945 -0.927875 2.768287 -0.797828 -8.735075 1.383816 -17.413101 3.016125 3.342452 -13.253768 -8.262931 0.000001 0.000000 0.000001 17.862270 10.917107 0.250390 -0.086747 -0.321745 23.075637 -0.039866 -0.273963 27.172866 -0.000000 -0.000003 0.000003 -27.548955 18.519240 27.675962 35.273778 -2.312384 -8.051876 -10.685961 -0.684960 -13.969123 -0.327634 1.238453 0.837240 -0.000000 -0.000001 0.000000 -34.391478 -3.163557 -25.446724 39.380292 11.931552 -2.689716 -12.787811 3.684973 17.936179 0.071293 -0.994981 -0.159421 -0.000000 0.000001 -0.000000 
